<svg width="11" height="11" viewBox="0 0 11 11" fill="none" xmlns="http://www.w3.org/2000/svg">
<path d="M10.8514 1.01906L9.9807 0.148307C9.77984 -0.0494356 9.45882 -0.0494356 9.26156 0.148307L8.35051 1.05942L9.93949 2.64944L10.851 1.74146C11.0496 1.5379 11.0496 1.2173 10.8514 1.01911L10.8514 1.01906ZM8.08148 1.33159L3.1541 6.41674L2.75059 8.25022L4.58392 7.84668L9.6426 2.89021L8.08148 1.33159ZM9.16692 5.49971V9.79662C9.16692 9.94279 9.05528 10.0863 8.90284 10.0863C8.7513 10.0863 1.1966 10.0836 1.1966 10.0836C1.03654 10.0836 0.915932 9.92888 0.915932 9.79662V2.11891C0.915932 1.97587 1.05044 1.83239 1.21991 1.83239H5.49983L6.4167 0.91589H0.670275C0.298145 0.91589 0 1.21092 0 1.58353V10.3292C0 10.6991 0.300842 11 0.670275 11H9.41571C9.78561 11 10.0833 10.6991 10.0833 10.3292V4.58278L9.16692 5.49971Z" fill="#D70000"/>
</svg>
